<?xml version="1.0" encoding="utf-8"?>
<!-- Generator: Adobe Illustrator 26.0.1, SVG Export Plug-In . SVG Version: 6.00 Build 0)  -->
<svg version="1.1" id="Layer_1" xmlns="http://www.w3.org/2000/svg" xmlns:xlink="http://www.w3.org/1999/xlink" x="0px" y="0px"
	 viewBox="0 0 1600 1200" style="enable-background:new 0 0 1600 1200;" xml:space="preserve">
<style type="text/css">
	.st0{fill:#280049;}
	.st1{fill:url(#SVGID_1_);}
	.st2{fill:url(#SVGID_00000104686355417168877190000018159288079470406301_);}
</style>
<g>
	<g>
		<path class="st0" d="M660,548.6c5.8,2.9,10.4,7.1,13.5,12.4c3.2,5.4,4.8,11.6,4.8,18.7c0,7.1-1.6,13.4-4.8,18.7
			c-3.2,5.4-7.7,9.5-13.5,12.4c-5.8,2.9-12.6,4.4-20.2,4.4h-25.6v40.5h-18.3V544.2h44C647.5,544.2,654.2,545.7,660,548.6z
			 M638.2,599.4c6.6,0,11.8-1.8,15.7-5.3c3.9-3.6,5.8-8.3,5.8-14.3c0-6.1-1.9-10.8-5.7-14.3c-3.8-3.5-9-5.3-15.6-5.3h-24.2v39.2
			H638.2z"/>
		<path class="st0" d="M761.8,655.8h-15.1l-1.9-10.4c-6.2,7.5-14.6,11.3-25.2,11.3c-9.6,0-17.3-3-23.3-8.9
			c-5.9-5.9-8.9-15.5-8.9-28.7v-44.9h17.2v43.2c0,8,1.6,14,4.8,18.2c3.2,4.1,7.9,6.2,14.2,6.2c6.6,0,11.7-2.4,15.5-7.2
			c3.7-4.8,5.6-11.4,5.6-19.8v-40.5h17.2V655.8z"/>
		<path class="st0" d="M820.5,590.3h-7.6c-7.1,0-12.3,2.3-15.5,6.9c-3.2,4.6-4.8,10.5-4.8,17.6v40.9h-17.2v-81.6h15.3l1.9,12.3
			c2.3-3.8,5.4-6.8,9.1-9c3.7-2.2,8.7-3.3,15-3.3h3.8V590.3z"/>
		<path class="st0" d="M842.9,578.4c6-3.5,12.9-5.2,20.6-5.2c7.9,0,14.8,1.6,20.8,4.8c6,3.2,10.7,7.7,14.2,13.5
			c3.5,5.8,5.2,12.7,5.3,20.6c0,2.1-0.2,4.3-0.5,6.5h-61.5v1c0.4,7.1,2.7,12.7,6.7,16.9c4,4.1,9.4,6.2,16.1,6.2
			c5.3,0,9.8-1.2,13.4-3.7c3.6-2.5,6-6,7.2-10.6h17.2c-1.5,8.3-5.5,15.1-12,20.4c-6.5,5.3-14.7,8-24.5,8c-8.5,0-15.9-1.7-22.2-5.2
			c-6.3-3.5-11.2-8.3-14.7-14.6c-3.5-6.3-5.2-13.5-5.2-21.8c0-8.4,1.7-15.7,5-22.1C832.2,586.7,836.9,581.9,842.9,578.4z
			 M879.2,592.1c-4-3.3-9-5-15.1-5c-5.6,0-10.5,1.7-14.6,5.2c-4.1,3.5-6.5,8-7.1,13.8h43.8C885.6,600.1,883.2,595.5,879.2,592.1z"/>
		<path class="st0" d="M989.4,544.2c11.4,0,21.3,2.3,29.8,7c8.5,4.7,15,11.2,19.6,19.6c4.6,8.4,6.9,18.1,6.9,29.2
			c0,10.9-2.3,20.6-6.9,29.1c-4.6,8.4-11.1,15-19.6,19.7c-8.5,4.7-18.4,7-29.8,7h-35.5V544.2H989.4z M1017.1,629.1
			c6.5-7.2,9.7-16.9,9.7-29.1s-3.2-21.9-9.7-29.1c-6.5-7.2-15.7-10.8-27.7-10.8h-17.2v79.7h17.2
			C1001.4,639.8,1010.6,636.2,1017.1,629.1z"/>
		<path class="st0" d="M1072.8,578.4c6-3.5,12.9-5.2,20.6-5.2c7.9,0,14.8,1.6,20.8,4.8c6,3.2,10.7,7.7,14.2,13.5
			c3.5,5.8,5.2,12.7,5.3,20.6c0,2.1-0.2,4.3-0.5,6.5h-61.5v1c0.4,7.1,2.7,12.7,6.7,16.9c4,4.1,9.4,6.2,16.1,6.2
			c5.3,0,9.8-1.2,13.4-3.7c3.6-2.5,6-6,7.2-10.6h17.2c-1.5,8.3-5.5,15.1-12,20.4c-6.5,5.3-14.7,8-24.5,8c-8.5,0-15.9-1.7-22.2-5.2
			c-6.3-3.5-11.2-8.3-14.7-14.6c-3.5-6.3-5.2-13.5-5.2-21.8c0-8.4,1.7-15.7,5-22.1S1066.8,581.9,1072.8,578.4z M1109.1,592.1
			c-4-3.3-9-5-15.1-5c-5.6,0-10.5,1.7-14.6,5.2c-4.1,3.5-6.5,8-7.1,13.8h43.8C1115.5,600.1,1113.1,595.5,1109.1,592.1z"/>
		<path class="st0" d="M1153.9,574.2l22.5,63.1l22.1-63.1h18.2l-30.1,81.6h-21l-30.1-81.6H1153.9z"/>
	</g>
	<g>
		<g>
			<linearGradient id="SVGID_1_" gradientUnits="userSpaceOnUse" x1="472.8931" y1="517.5945" x2="417.3669" y2="707.97">
				<stop  offset="0" style="stop-color:#F120EB"/>
				<stop  offset="1" style="stop-color:#FF00A2"/>
			</linearGradient>
			<polygon class="st1" points="436.2,644 424.1,631.9 477.3,578.8 424.1,525.6 436.2,513.4 501.5,578.8 			"/>
		</g>
		<g>
			
				<linearGradient id="SVGID_00000119103284500988831520000012487851573875020725_" gradientUnits="userSpaceOnUse" x1="485.3532" y1="521.2288" x2="429.8271" y2="711.6042">
				<stop  offset="0" style="stop-color:#F120EB"/>
				<stop  offset="1" style="stop-color:#FF00A2"/>
			</linearGradient>
			<path style="fill:url(#SVGID_00000119103284500988831520000012487851573875020725_);" d="M394.2,740.1l-5.4-2.1
				c-3.3-1.3-5.5-4.5-5.5-8.1V570.3l8.7-0.1h38.1v17.2h-29.7v122.3L532,578.8L424.5,472.1l12.1-12.2l119.7,118.8L394.2,740.1z
				 M386.2,723.8c-0.1,0.1-0.2,0.2-0.3,0.3L386.2,723.8z"/>
		</g>
	</g>
</g>
</svg>
